<?xml version="1.0" encoding="UTF-8"?>
<svg version="1.1" xmlns="http://www.w3.org/2000/svg" width="281" height="302">
<path d="M0 0 C92.73 0 185.46 0 281 0 C281 99.66 281 199.32 281 302 C188.27 302 95.54 302 0 302 C0 202.34 0 102.68 0 0 Z " fill="none" transform="translate(0,0)"/>
<path d="M0 0 C3.63351883 1.31366297 6.48908073 2.91021059 9.59375 5.19921875 C15.03902851 9.09287482 20.70107328 12.4759245 26.5 15.8125 C27.54881348 16.4199707 28.59762695 17.02744141 29.67822266 17.65332031 C38.7257615 22.87809134 47.84286768 27.97049099 57 33 C62.31006508 35.91808219 67.60796578 38.85548441 72.88769531 41.828125 C74.86650081 42.92593665 76.86241191 43.98186721 78.8671875 45.03125 C101.00406459 56.97209924 117.63426361 78.65941721 125.6875 102.1875 C125.99494141 103.06341797 126.30238281 103.93933594 126.61914062 104.84179688 C129.17259261 112.21160687 130.18147704 118.59333097 130.1875 126.375 C130.19974609 127.2 130.21199219 128.025 130.22460938 128.875 C130.23676051 133.97847494 129.64836454 138.16566604 128 143 C127.34 143 126.68 143 126 143 C125.34 145.97 124.68 148.94 124 152 C123.34 152 122.68 152 122 152 C121.73445312 152.73347656 121.46890625 153.46695313 121.1953125 154.22265625 C117.87039412 161.9482019 111.93178506 167.48685937 105 172 C103.77023438 172.82371094 103.77023438 172.82371094 102.515625 173.6640625 C97.61724536 176.79605676 93.84084103 178.74605039 88 179 C88 179.66 88 180.32 88 181 C65.2640651 187.63996013 38.75573066 187.52806675 16 181 C15.2972998 180.80744629 14.59459961 180.61489258 13.87060547 180.41650391 C0.28850429 176.62416075 -10.24042298 170.60664406 -17.4375 158.125 C-19.52931016 153.50482799 -19.94867673 148.97639196 -19 144 C-17.15644845 140.03554843 -14.62470007 138.24988003 -10.5625 136.625 C-1.76190121 135.0810353 3.45662122 137.55875144 11 142 C14.1220764 144.19994413 17.09552619 146.52092892 20 149 C19.34 149.33 18.68 149.66 18 150 C16.29908071 149.0816217 14.63814638 148.0886684 13 147.0625 C7.49979092 143.93606536 3.24374571 143.07974644 -3 144 C-3.99 144.33 -4.98 144.66 -6 145 C-7.03530984 149.22751519 -7.21015475 151.47918171 -5.5625 155.5625 C3.14055849 168.79470118 22.80312232 172.78827264 37.30859375 175.98046875 C52.98387547 179.17946918 66.69783581 178.55948729 82 174 C83.00675781 173.70351563 84.01351562 173.40703125 85.05078125 173.1015625 C86.66657053 172.6180226 88.27941121 172.12430798 89.88671875 171.61328125 C92.23772908 170.93101023 94.59485144 170.45070209 97 170 C97 169.34 97 168.68 97 168 C98.6875 166.80859375 98.6875 166.80859375 101 165.4375 C106.29689426 162.02579961 110.08445111 157.89443611 114 153 C114.763125 152.05125 115.52625 151.1025 116.3125 150.125 C118.73245015 145.64361084 119.84026848 140.93764478 121 136 C121.66 136 122.32 136 123 136 C122.40320101 113.56035803 116.71570819 93.39580345 102 76 C101.26652344 75.12730469 100.53304687 74.25460938 99.77734375 73.35546875 C91.18735 63.49288333 82.15028126 56.0400057 70.6875 49.75 C68.37486677 48.44645918 66.06367322 47.14061789 63.75390625 45.83203125 C62.04291748 44.86644287 62.04291748 44.86644287 60.29736328 43.88134766 C12.24127811 16.46240849 12.24127811 16.46240849 0 0 Z " fill="#A9B0C6" transform="translate(137,96)"/>
<path d="M0 0 C0.66 0 1.32 0 2 0 C2.39832031 1.41152344 2.39832031 1.41152344 2.8046875 2.8515625 C3.15789062 4.09679687 3.51109375 5.34203125 3.875 6.625 C4.22304687 7.85476562 4.57109375 9.08453125 4.9296875 10.3515625 C5.9043374 13.88887518 5.9043374 13.88887518 7.109375 16.76953125 C10.83002437 30.26504453 8.868273 46.61659297 2.4921875 58.90625 C-4.54051857 70.81278494 -16.22022047 82.14527578 -29.96484375 85.78515625 C-32.4375 86.0625 -32.4375 86.0625 -36 86 C-36 86.66 -36 87.32 -36 88 C-42.43013467 89.73955334 -48.34949576 90.24991456 -55 90 C-55 89.34 -55 88.68 -55 88 C-53.80375 87.71125 -52.6075 87.4225 -51.375 87.125 C-48.76387466 86.47913861 -46.29868282 85.75723636 -43.75 84.875 C-41 84 -41 84 -37 84 C-37 83.34 -37 82.68 -37 82 C-35.97777344 81.58105469 -34.95554687 81.16210938 -33.90234375 80.73046875 C-18.2833507 74.01866108 -8.47433054 64.54732089 -1.78540039 49.0637207 C1.20321746 41.2108184 1.27927703 33.51022779 1.1875 25.1875 C1.18685547 24.08857422 1.18621094 22.98964844 1.18554688 21.85742188 C1.14668307 14.52943486 0.71578304 7.29209123 0 0 Z " fill="#A9B0C6" transform="translate(117,142)"/>
<path d="M0 0 C3.06467828 2.99657431 5.49566512 5.62909767 6 10 C6.66 10 7.32 10 8 10 C13.31192808 28.99488569 15.85822306 51.56343579 6.57421875 69.80078125 C3.88256612 74.05039302 0.69892003 77.60932331 -3 81 C-3.99 81.99 -3.99 81.99 -5 83 C-9.53751172 84.95582402 -14.27869768 86.11077022 -19.125 87 C-24.91323748 88.07855357 -29.78209087 90.28668725 -35 93 C-32.85178064 88.08978432 -29.60470005 85.61808062 -25 83 C-21.7823294 81.84819689 -18.54107714 80.91367485 -15.25390625 79.98046875 C-6.50837106 77.34525947 -0.68852728 73.96732845 4 66 C4.3609375 65.42378906 4.721875 64.84757812 5.09375 64.25390625 C10.29639244 51.3145757 8.86433164 28.2152851 5 15 C3.39698052 11.61951479 1.70534857 8.60826668 -1 6 C-3.10249627 5.2304741 -3.10249627 5.2304741 -5 5 C-5.78375 5.9075 -6.5675 6.815 -7.375 7.75 C-7.81585938 8.26046875 -8.25671875 8.7709375 -8.7109375 9.296875 C-11.91177228 13.5258567 -12.24997782 16.61552588 -12.1875 21.9375 C-12.18105469 23.14277344 -12.17460938 24.34804688 -12.16796875 25.58984375 C-12.02369792 28.51887709 -11.67498236 31.15427436 -11 34 C-11.66 34 -12.32 34 -13 34 C-16.77076372 27.35340048 -17.009774 21.49656221 -16 14 C-13.21774723 6.50862683 -9.14870178 -1.6803738 0 0 Z " fill="#A9B0C6" transform="translate(112,21)"/>
<path d="M0 0 C0.33 0.66 0.66 1.32 1 2 C0.39671875 2.84304687 -0.2065625 3.68609375 -0.828125 4.5546875 C-6.57867569 13.21093972 -9.59825117 24.70015915 -8 35 C-5.30519591 44.28847366 0.05091549 50.05240701 8.36328125 54.67578125 C20.6950815 60.86908538 36.84413478 61.14689583 49.9375 56.87109375 C52.44272595 55.81301536 54.67810548 54.4072088 57 53 C59.12890625 53.421875 59.12890625 53.421875 61 54 C50.63557936 61.01879502 40.74458483 64.32288197 28.25 64.4375 C27.08029663 64.45272705 27.08029663 64.45272705 25.88696289 64.46826172 C13.17433914 64.27737745 2.49262934 58.3511142 -6.56640625 49.76953125 C-12.35289369 43.18426705 -13.71591476 35.57060094 -13.3828125 26.9765625 C-12.1368086 17.28824649 -7.22653645 6.69044324 0 0 Z " fill="#A9B0C6" transform="translate(157,180)"/>
<path d="M0 0 C0 4.05484702 -1.77248406 5.45494304 -4.296875 8.4765625 C-9.13568926 15.6459983 -10.63125638 21.91221709 -10.4375 30.5 C-10.44458984 31.38558594 -10.45167969 32.27117187 -10.45898438 33.18359375 C-10.38921966 40.4927889 -9.09060262 46.86409607 -5 53 C-5.375 55.1875 -5.375 55.1875 -6 57 C-13.47791111 55.5708881 -19.82863764 49.13063861 -24 43 C-24 42.34 -24 41.68 -24 41 C-24.66 41 -25.32 41 -26 41 C-31.01607691 29.02766549 -34.44308624 19.16950758 -34 6 C-31.79535466 9.30696801 -31.39847646 11.49298132 -30.6875 15.375 C-29.40735858 21.72291775 -27.45887372 27.47706063 -24.98828125 33.453125 C-24 36 -24 36 -24 38 C-23.34 38 -22.68 38 -22 38 C-20.59765625 39.6796875 -20.59765625 39.6796875 -19.0625 41.875 C-17.10052062 44.67496035 -15.90905857 46.06062762 -13 48 C-13.33 47.01 -13.66 46.02 -14 45 C-16.59154748 34.42723744 -16.12599141 22.6841807 -11 13 C-7.92300646 8.09367057 -4.205585 3.95819765 0 0 Z " fill="#A9B0C6" transform="translate(92,110)"/>
<path d="M0 0 C2.31 0.66 4.62 1.32 7 2 C7 2.66 7 3.32 7 4 C7.71929687 4.24363281 8.43859375 4.48726562 9.1796875 4.73828125 C15.36445124 7.50514924 20.49909751 12.66035788 24.125 18.3125 C25.37056853 23.56168165 25.23795978 28.63268504 25 34 C24.34 34 23.68 34 23 34 C22.814375 34.66 22.62875 35.32 22.4375 36 C18.48033672 44.25842772 11.90637176 48.80023713 4 53 C4 50 4 50 5.35546875 48.45703125 C5.96003906 47.91433594 6.56460938 47.37164062 7.1875 46.8125 C12.56771429 41.67237641 16.64949949 35.99570584 17.3125 28.4375 C17.06829745 18.87871433 12.45902535 12.87486276 5.88549805 6.4909668 C4.00489385 4.72381122 2.32012919 3.1600646 0 2 C0 1.34 0 0.68 0 0 Z " fill="#A9B0C6" transform="translate(70,167)"/>
<path d="M0 0 C0.33 0 0.66 0 1 0 C1.37766148 9.55693351 1.50291818 18.52348566 -1 27.8125 C-3.89390725 38.71263146 -4.37962177 48.31727669 0.125 58.890625 C1 61 1 61 1 63 C1.66 63 2.32 63 3 63 C3.97019732 64.70620908 4.93989045 66.41270812 5.90625 68.12109375 C6.82281502 69.69562152 7.80989775 71.22881038 8.8125 72.75 C9.204375 73.4925 9.59625 74.235 10 75 C9.67 75.99 9.34 76.98 9 78 C7.24834503 75.6262055 5.49863966 73.2510142 3.75 70.875 C3.25886719 70.20984375 2.76773438 69.5446875 2.26171875 68.859375 C0.83091287 66.91347901 -0.58582867 64.95800489 -2 63 C-2.73734375 61.99195313 -3.4746875 60.98390625 -4.234375 59.9453125 C-9.08436876 51.85483618 -9.57168172 41.67353974 -7.43457031 32.59912109 C-6.46612436 29.18818764 -5.39338709 25.81840045 -4.28857422 22.44946289 C-1.87118756 14.99645393 -0.68548431 7.80033869 0 0 Z " fill="#A9B0C6" transform="translate(52,25)"/>
<path d="M0 0 C-0.598125 0.226875 -1.19625 0.45375 -1.8125 0.6875 C-4.65736726 2.39442036 -5.41395133 4.08167044 -7 7 C-7.42796875 7.53238281 -7.8559375 8.06476562 -8.296875 8.61328125 C-13.09565164 14.90830566 -12.63924864 21.35641268 -12 29 C-11.70067219 30.67310841 -11.38059264 32.34348615 -11 34 C-11.66 34 -12.32 34 -13 34 C-16.77076372 27.35340048 -17.009774 21.49656221 -16 14 C-12.96021196 5.81519854 -9.42449303 -0.64257907 0 0 Z " fill="#A9B0C6" transform="translate(112,21)"/>
<path d="M0 0 C0.33 0 0.66 0 1 0 C1 7.59 1 15.18 1 23 C1.66 23.33 2.32 23.66 3 24 C2.67 25.32 2.34 26.64 2 28 C-0.375 28.1875 -0.375 28.1875 -3 28 C-5.86283661 23.70574508 -5.60554394 20.04382478 -5 15 C-4.15025717 12.3392668 -3.14173893 9.85932635 -1.97265625 7.32421875 C-0.95468529 4.89171787 -0.43624547 2.59451255 0 0 Z " fill="#A9B0C6" transform="translate(71,82)"/>
<path d="M0 0 C2.20464534 3.30696801 2.60152354 5.49298132 3.3125 9.375 C4.59264142 15.72291775 6.54112628 21.47706063 9.01171875 27.453125 C10 30 10 30 10 32 C10.66 32 11.32 32 12 32 C11.67 32.66 11.34 33.32 11 34 C9.515 34.495 9.515 34.495 8 35 C2.98392309 23.02766549 -0.44308624 13.16950758 0 0 Z " fill="#A9B0C6" transform="translate(58,116)"/>
<path d="M0 0 C0.66 0 1.32 0 2 0 C5.94998798 6.54216759 6.50146657 11.42228293 6 19 C6.721875 18.505 7.44375 18.01 8.1875 17.5 C11.14848659 15.92080715 12.71253029 15.71821688 16 16 C12.76641611 18.55992058 9.32623115 20.68354679 5.8046875 22.81640625 C3.86015519 24.00418197 3.86015519 24.00418197 2 26 C1.01 26 0.02 26 -1 26 C1 22 1 22 2.05078125 20.12109375 C4.75841004 14.07071337 2.84293206 7.57460767 0.65625 1.65234375 C0.4396875 1.10707031 0.223125 0.56179687 0 0 Z " fill="#A9B0C6" transform="translate(64,30)"/>
<path d="M0 0 C0.33 0.66 0.66 1.32 1 2 C0.39671875 2.82757813 -0.2065625 3.65515625 -0.828125 4.5078125 C-3.21649171 8.09036257 -4.48926746 11.78356608 -5.75 15.875 C-5.97042969 16.56335938 -6.19085938 17.25171875 -6.41796875 17.9609375 C-6.95368824 19.63797243 -7.47804778 21.31862931 -8 23 C-8.66 23 -9.32 23 -10 23 C-10.66 27.29 -11.32 31.58 -12 36 C-12.33 36 -12.66 36 -13 36 C-13.80455626 23.19414625 -10.3281113 13.47431375 -3 3 C-2.02857066 1.97222325 -1.03775115 0.96076665 0 0 Z " fill="#A9B0C6" transform="translate(157,180)"/>
<path d="M0 0 C0.92619141 0.28617188 0.92619141 0.28617188 1.87109375 0.578125 C-10.22809296 8.3832371 -10.22809296 8.3832371 -17.12890625 9.578125 C-18.47200979 9.28664296 -19.80474605 8.94621285 -21.12890625 8.578125 C-23.37597866 8.3583027 -25.62661863 8.17328513 -27.87890625 8.015625 C-29.049375 7.93183594 -30.21984375 7.84804687 -31.42578125 7.76171875 C-32.76382813 7.67083984 -32.76382813 7.67083984 -34.12890625 7.578125 C-34.12890625 7.248125 -34.12890625 6.918125 -34.12890625 6.578125 C-32.58783203 6.52205078 -32.58783203 6.52205078 -31.015625 6.46484375 C-22.21254263 6.07511009 -6.71327384 -1.33033683 0 0 Z " fill="#A9B0C6" transform="translate(216.12890625,233.421875)"/>
<path d="M0 0 C0.66 0 1.32 0 2 0 C5.44419134 9.41002278 5.44419134 9.41002278 5 14 C4.34 14 3.68 14 3 14 C3.01047363 14.77714355 3.02094727 15.55428711 3.03173828 16.35498047 C3.07320282 19.861621 3.09929578 23.36821006 3.125 26.875 C3.14175781 28.09832031 3.15851563 29.32164062 3.17578125 30.58203125 C3.18222656 31.74863281 3.18867187 32.91523438 3.1953125 34.1171875 C3.20578613 35.19597168 3.21625977 36.27475586 3.22705078 37.38623047 C3 40 3 40 1 42 C1.00523682 41.15405273 1.01047363 40.30810547 1.01586914 39.43652344 C1.03311327 36.23828391 1.04554704 33.0400684 1.05493164 29.84179688 C1.05989951 28.46874197 1.0666761 27.09569218 1.07543945 25.72265625 C1.12907915 17.08981994 0.89797465 8.58897059 0 0 Z " fill="#A9B0C6" transform="translate(117,142)"/>
<path d="M0 0 C0.33 0 0.66 0 1 0 C1.21890931 4.12515626 1.4153668 8.25074344 1.59204102 12.37792969 C1.65504876 13.77860323 1.72393905 15.17902609 1.79907227 16.57910156 C2.20935194 24.30006933 2.54304132 30.93213351 -1 38 C-1.99 37.67 -2.98 37.34 -4 37 C-3.690625 36.175 -3.38125 35.35 -3.0625 34.5 C-0.74774507 26.87492494 -0.73947764 18.91082407 -0.4375 11 C-0.39431641 9.93910156 -0.35113281 8.87820312 -0.30664062 7.78515625 C-0.20144004 5.19020849 -0.09929881 2.59517916 0 0 Z " fill="#A9B0C6" transform="translate(120,52)"/>
<path d="M0 0 C2.25 -0.3125 2.25 -0.3125 5 0 C7.57353133 2.6470608 9.79290961 5.48846433 11 9 C10.625 11.75 10.625 11.75 10 14 C8 13 8 13 6.1875 9.625 C4.35090262 6.24981916 2.53274101 4.66823881 -1 3 C-0.67 2.01 -0.34 1.02 0 0 Z " fill="#A9B0C6" transform="translate(108,22)"/>
<path d="M0 0 C2.98291012 5.11356021 4.36844835 11.10482642 4 17 C3.34 17 2.68 17 2 17 C1.67 18.32 1.34 19.64 1 21 C-1.06632798 13.89699758 -2.03551543 7.23015081 0 0 Z " fill="#A9B0C6" transform="translate(119,31)"/>
<path d="M0 0 C0.33 0 0.66 0 1 0 C1.57446809 20.72340426 1.57446809 20.72340426 -2 29 C-2.66 28.67 -3.32 28.34 -4 28 C-3.81824219 26.85337891 -3.81824219 26.85337891 -3.6328125 25.68359375 C-2.29575456 17.13670802 -1.11527298 8.57811028 0 0 Z " fill="#A9B0C6" transform="translate(52,25)"/>
<path d="M0 0 C3.82472829 1.37333152 6.88428843 3.14127706 10.1875 5.5 C11.04730469 6.1084375 11.90710938 6.716875 12.79296875 7.34375 C16.25090707 9.9387338 17.51904425 11.98026296 19 16 C11.42072605 12.56919701 4.95299031 6.60398708 0 0 Z " fill="#A9B0C6" transform="translate(137,96)"/>
<path d="M0 0 C0.33 0 0.66 0 1 0 C1.33 6.27 1.66 12.54 2 19 C2.66 19 3.32 19 4 19 C4.33 18.34 4.66 17.68 5 17 C5.33 18.98 5.66 20.96 6 23 C5.34 23 4.68 23 4 23 C4 23.99 4 24.98 4 26 C2.68 25.34 1.36 24.68 0 24 C0.66 24 1.32 24 2 24 C1.67 23.01 1.34 22.02 1 21 C-0.75332445 14.18425987 -0.15246699 6.97959996 0 0 Z " fill="#A9B0C6" transform="translate(77,134)"/>
<path d="M0 0 C0.15210938 0.62132812 0.30421875 1.24265625 0.4609375 1.8828125 C0.96613154 3.9737822 0.96613154 3.9737822 1.625 5.875 C2.13117027 8.74329819 1.57908417 11.16892182 1 14 C0.34 13.67 -0.32 13.34 -1 13 C-2.41634833 15.83269666 -2.3463005 18.47466438 -2.5625 21.625 C-2.64628906 22.81351563 -2.73007812 24.00203125 -2.81640625 25.2265625 C-2.87699219 26.14179687 -2.93757813 27.05703125 -3 28 C-3.33 28 -3.66 28 -4 28 C-4.50912521 17.77506877 -3.66263946 9.69618393 0 0 Z " fill="#A9B0C6" transform="translate(48,47)"/>
<path d="M0 0 C0.61746094 0.31582031 1.23492187 0.63164062 1.87109375 0.95703125 C-4.55904092 2.69658459 -10.47840201 3.20694581 -17.12890625 2.95703125 C-17.12890625 2.29703125 -17.12890625 1.63703125 -17.12890625 0.95703125 C-15.14322917 0.46875 -13.15755208 -0.01953125 -11.171875 -0.5078125 C-6.41556197 -1.75373006 -4.50647972 -2.20776162 0 0 Z " fill="#A9B0C6" transform="translate(79.12890625,229.04296875)"/>
<path d="M0 0 C1.79639296 1.09646058 3.58697154 2.20245148 5.375 3.3125 C6.37273437 3.92738281 7.37046875 4.54226562 8.3984375 5.17578125 C11 7 11 7 13 10 C10.67449653 9.1279362 8.43799825 8.26502435 6.30859375 6.9765625 C0.29460394 3.43596725 -5.14877885 3.58892673 -12 4 C-11.67 3.34 -11.34 2.68 -11 2 C-7.37 2 -3.74 2 0 2 C0 1.34 0 0.68 0 0 Z " fill="#A9B0C6" transform="translate(144,236)"/>
<path d="M0 0 C0 0.66 0 1.32 0 2 C0.66 2.66 1.32 3.32 2 4 C1.32453125 4.26554687 0.6490625 4.53109375 -0.046875 4.8046875 C-0.93890625 5.15789062 -1.8309375 5.51109375 -2.75 5.875 C-3.63171875 6.22304687 -4.5134375 6.57109375 -5.421875 6.9296875 C-7.6740248 7.8646709 -9.83649459 8.87780794 -12 10 C-10.58426179 6.60812721 -8.95769034 4.90302459 -6 2.75 C-5.29875 2.22921875 -4.5975 1.7084375 -3.875 1.171875 C-2 0 -2 0 0 0 Z " fill="#A9B0C6" transform="translate(89,104)"/>
<path d="M0 0 C2.21937626 3.32906439 2.626855 5.51613756 3.25 9.4375 C3.44078125 10.57058594 3.6315625 11.70367187 3.828125 12.87109375 C4.00292114 16.05317795 3.72312423 17.38316582 2 20 C0.2120463 13.1834265 -0.23668569 7.03482474 0 0 Z " fill="#A9B0C6" transform="translate(58,116)"/>
<path d="M0 0 C0.99 0 1.98 0 3 0 C7.78231699 6.42623846 7.42306682 12.18501571 7 20 C6.67 20 6.34 20 6 20 C5.67 17.69 5.34 15.38 5 13 C4.67 13 4.34 13 4 13 C3.87882812 12.31292969 3.75765625 11.62585938 3.6328125 10.91796875 C3.46523437 10.01691406 3.29765625 9.11585937 3.125 8.1875 C2.96257812 7.29417969 2.80015625 6.40085937 2.6328125 5.48046875 C2.08811551 2.77272154 2.08811551 2.77272154 0 0 Z " fill="#A9B0C6" transform="translate(66,74)"/>
<path d="M0 0 C0 3.539747 -0.6751166 4.22806752 -2.8125 6.9375 C-3.59560547 7.94103516 -3.59560547 7.94103516 -4.39453125 8.96484375 C-4.92433594 9.63644531 -5.45414062 10.30804688 -6 11 C-6.77923828 12.11568359 -6.77923828 12.11568359 -7.57421875 13.25390625 C-8.04472656 13.83011719 -8.51523438 14.40632813 -9 15 C-9.66 15 -10.32 15 -11 15 C-9.2645544 8.82952674 -4.42122925 4.42122925 0 0 Z " fill="#A9B0C6" transform="translate(92,110)"/>
<path d="M0 0 C0.33 0 0.66 0 1 0 C1 4.62 1 9.24 1 14 C0.34 14 -0.32 14 -1 14 C-2.18005182 10.31233808 -2.20993972 6.84889483 -2 3 C-1.34 2.01 -0.68 1.02 0 0 Z " fill="#A9B0C6" transform="translate(47,59)"/>
<path d="M0 0 C0.33 0 0.66 0 1 0 C1.06058594 0.80824219 1.12117188 1.61648437 1.18359375 2.44921875 C1.26738281 3.51785156 1.35117188 4.58648437 1.4375 5.6875 C1.55931641 7.27111328 1.55931641 7.27111328 1.68359375 8.88671875 C1.96451681 11.65086297 2.40156852 14.28945741 3 17 C2.34 17 1.68 17 1 17 C-1.11432993 13.99114587 -2.07371103 11.85294196 -1.75390625 8.15234375 C-1.24121943 5.4121211 -0.66927745 2.70599947 0 0 Z " fill="#A9B0C6" transform="translate(98,38)"/>
<path d="M0 0 C0.33 0.66 0.66 1.32 1 2 C0.071875 3.299375 0.071875 3.299375 -0.875 4.625 C-2.84654784 7.75628186 -3.98966991 10.46384469 -5 14 C-5.99 13.67 -6.98 13.34 -8 13 C-6.63589551 7.40717158 -3.84616474 4.08806189 0 0 Z " fill="#A9B0C6" transform="translate(157,180)"/>
<path d="M0 0 C2.05411219 2.59466802 3.92577727 5.30329961 5.75 8.0625 C6.19859375 8.73410156 6.6471875 9.40570313 7.109375 10.09765625 C8 12 8 12 7 15 C5.63053378 13.26194659 4.27984046 11.50908767 2.9375 9.75 C2.18339844 8.77546875 1.42929687 7.8009375 0.65234375 6.796875 C-1 4 -1 4 -0.74609375 1.640625 C-0.49988281 1.09921875 -0.25367188 0.5578125 0 0 Z " fill="#A9B0C6" transform="translate(54,88)"/>
<path d="M0 0 C0.89203125 0.10183594 1.7840625 0.20367187 2.703125 0.30859375 C3.37859375 0.39238281 4.0540625 0.47617187 4.75 0.5625 C4.75 1.2225 4.75 1.8825 4.75 2.5625 C2.97950311 2.61660687 1.20853151 2.65534119 -0.5625 2.6875 C-2.04169922 2.72230469 -2.04169922 2.72230469 -3.55078125 2.7578125 C-6.25 2.5625 -6.25 2.5625 -9.25 0.5625 C-5.98086376 -0.46865279 -3.38958652 -0.4013984 0 0 Z " fill="#A9B0C6" transform="translate(86.25,44.4375)"/>
<path d="M0 0 C0.12375 0.639375 0.2475 1.27875 0.375 1.9375 C0.684375 2.9584375 0.684375 2.9584375 1 4 C1.66 4.33 2.32 4.66 3 5 C0.6875 7.5 0.6875 7.5 -2 10 C-2.99 10 -3.98 10 -5 10 C-3.33333333 6.66666667 -1.66666667 3.33333333 0 0 Z " fill="#A9B0C6" transform="translate(68,46)"/>
<path d="M0 0 C0.33 0 0.66 0 1 0 C1 3.63 1 7.26 1 11 C0.01 11 -0.98 11 -2 11 C-2.28571429 3.57142857 -2.28571429 3.57142857 0 0 Z " fill="#A9B0C6" transform="translate(147,202)"/>
<path d="M0 0 C0.33 0 0.66 0 1 0 C2.51708428 10.55808656 2.51708428 10.55808656 0 15 C-0.99 14.67 -1.98 14.34 -3 14 C-2.5359375 12.7625 -2.5359375 12.7625 -2.0625 11.5 C-0.88122417 7.60873845 -0.41775832 4.03833047 0 0 Z " fill="#A9B0C6" transform="translate(119,75)"/>
<path d="M0 0 C-0.598125 0.226875 -1.19625 0.45375 -1.8125 0.6875 C-4.56351888 2.33811133 -5.52484637 4.1972081 -7 7 C-7.99 6.67 -8.98 6.34 -10 6 C-9.6875 4.125 -9.6875 4.125 -9 2 C-5.5647952 -0.29013653 -4.014669 -0.17842973 0 0 Z " fill="#A9B0C6" transform="translate(112,21)"/>
<path d="M0 0 C1.4606285 2.64738916 2 3.89448334 2 7 C1.34 7 0.68 7 0 7 C0.165 7.495 0.33 7.99 0.5 8.5 C1.20688818 12.03444089 1.06005155 15.39690701 1 19 C0.67 19 0.34 19 0 19 C-1.29561672 12.68386851 -1.78161678 6.24979855 0 0 Z " fill="#A9B0C6" transform="translate(119,31)"/>
<path d="M0 0 C2 1 2 1 2.703125 2.99609375 C2.88359375 3.80175781 3.0640625 4.60742188 3.25 5.4375 C3.44078125 6.24058594 3.6315625 7.04367188 3.828125 7.87109375 C3.88484375 8.57363281 3.9415625 9.27617187 4 10 C3.34 10.66 2.68 11.32 2 12 C0.40861915 7.82262526 -0.21278058 4.46839215 0 0 Z " fill="#A9B0C6" transform="translate(61,132)"/>
<path d="M0 0 C2.9375 0.75 2.9375 0.75 6 2 C6.8125 4 6.8125 4 7 6 C7.33 6.66 7.66 7.32 8 8 C5.04987143 6.63029745 2.4347778 5.17390875 0 3 C0 2.01 0 1.02 0 0 Z " fill="#A9B0C6" transform="translate(148,104)"/>
<path d="M0 0 C0.66 0 1.32 0 2 0 C2.92844389 4.33273814 2.92844389 7.66726186 2 12 C1.67 12 1.34 12 1 12 C0.67 8.04 0.34 4.08 0 0 Z " fill="#A9B0C6" transform="translate(117,142)"/>
<path d="M0 0 C1.98 0 3.96 0 6 0 C3.63707344 2.52588702 2.33537489 3.88820837 -1 5 C-0.67 3.35 -0.34 1.7 0 0 Z " fill="#A9B0C6" transform="translate(91,107)"/>
<path d="M0 0 C0.33 1.32 0.66 2.64 1 4 C1.66 4 2.32 4 3 4 C2.67 5.65 2.34 7.3 2 9 C1.34 9 0.68 9 0 9 C0 6.03 0 3.06 0 0 Z " fill="#A9B0C6" transform="translate(45,69)"/>
<path d="M0 0 C0.33 1.32 0.66 2.64 1 4 C-0.98 4.99 -2.96 5.98 -5 7 C-3.70700306 4.11562221 -2.34058637 2.12780579 0 0 Z " fill="#A9B0C6" transform="translate(78,213)"/>
<path d="M0 0 C0.66 0 1.32 0 2 0 C3.4606285 2.64738916 4 3.89448334 4 7 C3.34 7 2.68 7 2 7 C0 4 0 4 0 0 Z " fill="#A9B0C6" transform="translate(50,84)"/>
</svg>
